<svg width="134" height="106" viewBox="0 0 134 106" fill="none" xmlns="http://www.w3.org/2000/svg">
<path d="M63.9545 0V30.9251C63.9545 39.7415 62.2626 48.8292 58.8788 58.1881C55.6303 67.547 51.2313 76.4312 45.6818 84.8407C40.1323 93.1145 34.0414 100.168 27.4091 106L0 90.1305C5.00808 82.128 9.27172 73.4472 12.7909 64.0883C16.3101 54.5937 18.0697 43.6072 18.0697 31.1286V0H63.9545ZM134 0V30.9251C134 39.7415 132.308 48.8292 128.924 58.1881C125.676 67.547 121.277 76.4312 115.727 84.8407C110.178 93.1145 104.087 100.168 97.4545 106L70.0455 90.1305C75.0535 82.128 79.3172 73.4472 82.8364 64.0883C86.3556 54.5937 88.1152 43.6072 88.1152 31.1286V0H134Z" fill="#00E6A8"/>
</svg>
