<svg width="76" height="19" viewBox="0 0 76 19" fill="none" xmlns="http://www.w3.org/2000/svg">
<g clip-path="url(#clip0_1792_694)">
<path d="M19.973 6.73438H27.6683V8.19591H24.6425V16.4119H22.9787V8.19591H19.9663V6.73438H19.973ZM27.3395 9.40476H28.7619V10.757H28.7887C28.8357 10.5658 28.9229 10.3814 29.0503 10.2038C29.1778 10.0263 29.3321 9.85551 29.5133 9.71209C29.6944 9.56184 29.8957 9.44573 30.1171 9.35012C30.3385 9.26133 30.5666 9.21353 30.7947 9.21353C30.9691 9.21353 31.0966 9.22036 31.1637 9.22719C31.2308 9.23402 31.2979 9.24767 31.3717 9.2545V10.7434C31.2643 10.7229 31.157 10.7092 31.0429 10.6956C30.9289 10.6819 30.8215 10.6751 30.7142 10.6751C30.4592 10.6751 30.2177 10.7297 29.9896 10.8321C29.7615 10.9346 29.5669 11.0917 29.3992 11.2897C29.2315 11.4946 29.0973 11.7405 28.9967 12.041C28.896 12.3415 28.8491 12.683 28.8491 13.0723V16.4051H27.3328V9.40476H27.3395ZM38.3424 16.4119H36.853V15.4353H36.8261C36.6383 15.7904 36.3632 16.0705 35.9942 16.2822C35.6252 16.4939 35.2495 16.6032 34.8671 16.6032C33.9614 16.6032 33.3039 16.3778 32.9013 15.9202C32.4988 15.4626 32.2975 14.7728 32.2975 13.8508V9.40476H33.8138V13.7006C33.8138 14.3153 33.9278 14.7523 34.1626 15.005C34.3907 15.2577 34.7195 15.3875 35.1354 15.3875C35.4575 15.3875 35.7191 15.3397 35.9338 15.2373C36.1485 15.1348 36.3229 15.005 36.4504 14.8343C36.5846 14.6704 36.6785 14.4655 36.7389 14.2333C36.7993 14.0011 36.8261 13.7484 36.8261 13.4752V9.41159H38.3424V16.4119ZM40.9253 14.165C40.9723 14.6158 41.14 14.9299 41.4285 15.1143C41.7237 15.2919 42.0726 15.3875 42.4818 15.3875C42.6227 15.3875 42.7838 15.3738 42.9649 15.3534C43.146 15.3329 43.3205 15.2851 43.4748 15.2236C43.6358 15.1621 43.7633 15.0665 43.8706 14.9436C43.9713 14.8206 44.0182 14.6636 44.0115 14.4655C44.0048 14.2674 43.931 14.1035 43.7968 13.9806C43.6626 13.8508 43.4949 13.7552 43.2869 13.6733C43.0789 13.5981 42.8441 13.5298 42.5758 13.4752C42.3074 13.4206 42.039 13.3591 41.764 13.2976C41.4822 13.2362 41.2071 13.1542 40.9455 13.0654C40.6838 12.9766 40.449 12.8537 40.241 12.6966C40.033 12.5464 39.8653 12.3483 39.7446 12.1093C39.6171 11.8702 39.5567 11.5766 39.5567 11.2214C39.5567 10.839 39.6506 10.5248 39.8318 10.2653C40.0129 10.0058 40.2477 9.80087 40.5228 9.64379C40.8046 9.48671 41.1132 9.37744 41.4554 9.30914C41.7975 9.24767 42.1263 9.21353 42.4349 9.21353C42.7905 9.21353 43.1326 9.2545 43.4547 9.32963C43.7767 9.40476 44.0719 9.52769 44.3335 9.70526C44.5952 9.876 44.8099 10.1014 44.9843 10.3746C45.1588 10.6477 45.2661 10.9824 45.3131 11.3717H43.7297C43.6559 11.0029 43.4949 10.7502 43.2333 10.6273C42.9716 10.4975 42.6697 10.436 42.3342 10.436C42.2269 10.436 42.0994 10.4429 41.9518 10.4633C41.8042 10.4838 41.67 10.518 41.5359 10.5658C41.4084 10.6136 41.3011 10.6887 41.2071 10.7843C41.1199 10.88 41.0729 11.0029 41.0729 11.16C41.0729 11.3512 41.14 11.5014 41.2675 11.6176C41.395 11.7337 41.5627 11.8293 41.7707 11.9112C41.9787 11.9864 42.2135 12.0546 42.4818 12.1093C42.7502 12.1639 43.0253 12.2254 43.3071 12.2869C43.5821 12.3483 43.8505 12.4303 44.1188 12.5191C44.3872 12.6078 44.622 12.7308 44.83 12.8879C45.038 13.0449 45.2057 13.2362 45.3332 13.4684C45.4607 13.7006 45.5277 13.9943 45.5277 14.3357C45.5277 14.7523 45.4338 15.1007 45.246 15.3943C45.0581 15.6812 44.8166 15.9202 44.5214 16.0978C44.2262 16.2754 43.8907 16.4119 43.5285 16.4939C43.1662 16.5759 42.8039 16.6168 42.4483 16.6168C42.0122 16.6168 41.6097 16.569 41.2407 16.4666C40.8717 16.3641 40.5496 16.2139 40.2813 16.0158C40.0129 15.8109 39.7982 15.5582 39.6439 15.2577C39.4896 14.9572 39.4091 14.5953 39.3957 14.1787H40.9253V14.165ZM45.9303 9.40476H47.0775V7.30123H48.5938V9.40476H49.9624V10.559H48.5938V14.3016C48.5938 14.4655 48.6005 14.6021 48.6139 14.725C48.6273 14.8411 48.6609 14.9436 48.7078 15.0255C48.7548 15.1075 48.8286 15.169 48.9292 15.2099C49.0299 15.2509 49.1573 15.2714 49.3318 15.2714C49.4391 15.2714 49.5465 15.2714 49.6538 15.2646C49.7611 15.2577 49.8685 15.2441 49.9758 15.2168V16.4119C49.8081 16.4324 49.6404 16.4461 49.4861 16.4666C49.3251 16.4871 49.164 16.4939 48.9963 16.4939C48.5938 16.4939 48.2717 16.4529 48.0302 16.3778C47.7887 16.3027 47.5941 16.1866 47.46 16.0363C47.3191 15.8861 47.2318 15.7017 47.1782 15.4763C47.1312 15.2509 47.0977 14.9914 47.091 14.7045V10.5726H45.9437V9.40476H45.9303ZM51.0359 9.40476H52.4716V10.3541H52.4984C52.7131 9.9443 53.0083 9.65745 53.3907 9.47988C53.7732 9.30231 54.1824 9.21353 54.6319 9.21353C55.1753 9.21353 55.645 9.30914 56.0475 9.5072C56.4501 9.69843 56.7855 9.96478 57.0539 10.3063C57.3222 10.6477 57.5168 11.0439 57.651 11.4946C57.7852 11.9454 57.8522 12.4303 57.8522 12.9425C57.8522 13.4137 57.7919 13.8713 57.6711 14.3084C57.5503 14.7523 57.3692 15.1416 57.1277 15.4831C56.8862 15.8246 56.5775 16.091 56.2018 16.2958C55.8261 16.5007 55.39 16.6032 54.8802 16.6032C54.6588 16.6032 54.4374 16.5827 54.216 16.5417C53.9946 16.5007 53.7799 16.4324 53.5786 16.3436C53.3773 16.2549 53.1828 16.1388 53.015 15.9953C52.8406 15.8519 52.6997 15.688 52.5789 15.5036H52.5521V19.0004H51.0359V9.40476V9.40476ZM56.336 12.9152C56.336 12.601 56.2958 12.2937 56.2153 11.9932C56.1347 11.6927 56.014 11.4332 55.853 11.2009C55.6919 10.9687 55.4907 10.7843 55.2559 10.6477C55.0143 10.5112 54.7393 10.436 54.4306 10.436C53.7933 10.436 53.3102 10.6614 52.9882 11.1122C52.6662 11.5629 52.5051 12.1639 52.5051 12.9152C52.5051 13.2703 52.5454 13.5981 52.6326 13.8986C52.7198 14.1991 52.8406 14.4587 53.015 14.6772C53.1828 14.8958 53.384 15.0665 53.6188 15.1894C53.8537 15.3192 54.1287 15.3807 54.4374 15.3807C54.7862 15.3807 55.0747 15.3055 55.3162 15.1621C55.5578 15.0187 55.7523 14.8275 55.9066 14.6021C56.0609 14.3699 56.175 14.1104 56.2421 13.8167C56.3025 13.523 56.336 13.2225 56.336 12.9152V12.9152ZM59.0129 6.73438H60.5292V8.19591H59.0129V6.73438ZM59.0129 9.40476H60.5292V16.4119H59.0129V9.40476ZM61.8844 6.73438H63.4006V16.4119H61.8844V6.73438ZM68.05 16.6032C67.4998 16.6032 67.0101 16.5076 66.5807 16.3232C66.1513 16.1388 65.789 15.8792 65.4871 15.5582C65.1919 15.2304 64.9638 14.8411 64.8095 14.3904C64.6552 13.9396 64.5747 13.4411 64.5747 12.9015C64.5747 12.3688 64.6552 11.8771 64.8095 11.4263C64.9638 10.9756 65.1919 10.5863 65.4871 10.2585C65.7823 9.93064 66.1513 9.67794 66.5807 9.49354C67.0101 9.30914 67.4998 9.21353 68.05 9.21353C68.6001 9.21353 69.0899 9.30914 69.5193 9.49354C69.9486 9.67794 70.3109 9.93747 70.6128 10.2585C70.908 10.5863 71.1362 10.9756 71.2905 11.4263C71.4448 11.8771 71.5253 12.3688 71.5253 12.9015C71.5253 13.4411 71.4448 13.9396 71.2905 14.3904C71.1362 14.8411 70.908 15.2304 70.6128 15.5582C70.3176 15.8861 69.9486 16.1388 69.5193 16.3232C69.0899 16.5076 68.6001 16.6032 68.05 16.6032V16.6032ZM68.05 15.3807C68.3854 15.3807 68.6806 15.3055 68.9289 15.1621C69.1771 15.0187 69.3784 14.8275 69.5394 14.5953C69.7004 14.3631 69.8145 14.0967 69.895 13.803C69.9688 13.5094 70.009 13.2089 70.009 12.9015C70.009 12.601 69.9688 12.3073 69.895 12.0068C69.8212 11.7063 69.7004 11.4468 69.5394 11.2146C69.3784 10.9824 69.1771 10.798 68.9289 10.6546C68.6806 10.5112 68.3854 10.436 68.05 10.436C67.7145 10.436 67.4193 10.5112 67.1711 10.6546C66.9229 10.798 66.7216 10.9892 66.5606 11.2146C66.3996 11.4468 66.2855 11.7063 66.205 12.0068C66.1312 12.3073 66.091 12.601 66.091 12.9015C66.091 13.2089 66.1312 13.5094 66.205 13.803C66.2788 14.0967 66.3996 14.3631 66.5606 14.5953C66.7216 14.8275 66.9229 15.0187 67.1711 15.1621C67.4193 15.3124 67.7145 15.3807 68.05 15.3807V15.3807ZM71.9681 9.40476H73.1153V7.30123H74.6316V9.40476H76.0002V10.559H74.6316V14.3016C74.6316 14.4655 74.6383 14.6021 74.6517 14.725C74.6651 14.8411 74.6987 14.9436 74.7456 15.0255C74.7926 15.1075 74.8664 15.169 74.967 15.2099C75.0677 15.2509 75.1951 15.2714 75.3696 15.2714C75.4769 15.2714 75.5842 15.2714 75.6916 15.2646C75.7989 15.2577 75.9063 15.2441 76.0136 15.2168V16.4119C75.8459 16.4324 75.6782 16.4461 75.5239 16.4666C75.3628 16.4871 75.2018 16.4939 75.0341 16.4939C74.6316 16.4939 74.3095 16.4529 74.068 16.3778C73.8265 16.3027 73.6319 16.1866 73.4977 16.0363C73.3568 15.8861 73.2696 15.7017 73.216 15.4763C73.169 15.2509 73.1354 14.9914 73.1287 14.7045V10.5726H71.9815V9.40476H71.9681Z" fill="#070707"/>
<path d="M18.2016 6.734H11.2511L9.10417 0L6.95056 6.734L0 6.72717L5.62888 10.8932L3.47528 17.6204L9.10417 13.4612L14.7263 17.6204L12.5794 10.8932L18.2016 6.734Z" fill="#00B67A"/>
<path d="M13.0623 12.4166L12.5793 10.8936L9.104 13.4615L13.0623 12.4166Z" fill="#005128"/>
</g>
<defs>
<clipPath id="clip0_1792_694">
<rect width="76" height="19" fill="white"/>
</clipPath>
</defs>
</svg>
